<?xml version="1.0" encoding="UTF-8" standalone="no"?>
<!DOCTYPE svg PUBLIC "-//W3C//DTD SVG 1.1//EN"
 "http://www.w3.org/Graphics/SVG/1.1/DTD/svg11.dtd">
<!-- Generated by graphviz version 2.43.0 (0)
 -->
<!-- Title: %3 Pages: 1 -->
<svg width="1032pt" height="404pt"
 viewBox="0.00 0.00 1032.21 404.00" xmlns="http://www.w3.org/2000/svg" xmlns:xlink="http://www.w3.org/1999/xlink">
<g id="graph0" class="graph" transform="scale(1 1) rotate(0) translate(4 400)">
<title>%3</title>
<polygon fill="white" stroke="transparent" points="-4,4 -4,-400 1028.21,-400 1028.21,4 -4,4"/>
<!-- [root] aws_autoscaling_group.project (expand) -->
<g id="node1" class="node">
<title>[root] aws_autoscaling_group.project (expand)</title>
<polygon fill="none" stroke="black" points="849.38,-252 613.38,-252 613.38,-216 849.38,-216 849.38,-252"/>
<text text-anchor="middle" x="731.38" y="-230.3" font-family="Times,serif" font-size="14.00">aws_autoscaling_group.project</text>
</g>
<!-- [root] aws_elb.project (expand) -->
<g id="node2" class="node">
<title>[root] aws_elb.project (expand)</title>
<polygon fill="none" stroke="black" points="510.38,-180 382.38,-180 382.38,-144 510.38,-144 510.38,-180"/>
<text text-anchor="middle" x="446.38" y="-158.3" font-family="Times,serif" font-size="14.00">aws_elb.project</text>
</g>
<!-- [root] aws_autoscaling_group.project (expand)&#45;&gt;[root] aws_elb.project (expand) -->
<g id="edge1" class="edge">
<title>[root] aws_autoscaling_group.project (expand)&#45;&gt;[root] aws_elb.project (expand)</title>
<path fill="none" stroke="black" d="M662.03,-215.97C619.14,-205.43 564.12,-191.92 520.39,-181.18"/>
<polygon fill="black" stroke="black" points="521.22,-177.78 510.67,-178.79 519.55,-184.57 521.22,-177.78"/>
</g>
<!-- [root] aws_launch_configuration.project (expand) -->
<g id="node3" class="node">
<title>[root] aws_launch_configuration.project (expand)</title>
<polygon fill="none" stroke="black" points="858.88,-180 603.88,-180 603.88,-144 858.88,-144 858.88,-180"/>
<text text-anchor="middle" x="731.38" y="-158.3" font-family="Times,serif" font-size="14.00">aws_launch_configuration.project</text>
</g>
<!-- [root] aws_autoscaling_group.project (expand)&#45;&gt;[root] aws_launch_configuration.project (expand) -->
<g id="edge2" class="edge">
<title>[root] aws_autoscaling_group.project (expand)&#45;&gt;[root] aws_launch_configuration.project (expand)</title>
<path fill="none" stroke="black" d="M731.38,-215.7C731.38,-207.98 731.38,-198.71 731.38,-190.11"/>
<polygon fill="black" stroke="black" points="734.88,-190.1 731.38,-180.1 727.88,-190.1 734.88,-190.1"/>
</g>
<!-- [root] aws_security_group.elb (expand) -->
<g id="node4" class="node">
<title>[root] aws_security_group.elb (expand)</title>
<polygon fill="none" stroke="black" points="310.38,-108 126.38,-108 126.38,-72 310.38,-72 310.38,-108"/>
<text text-anchor="middle" x="218.38" y="-86.3" font-family="Times,serif" font-size="14.00">aws_security_group.elb</text>
</g>
<!-- [root] aws_elb.project (expand)&#45;&gt;[root] aws_security_group.elb (expand) -->
<g id="edge3" class="edge">
<title>[root] aws_elb.project (expand)&#45;&gt;[root] aws_security_group.elb (expand)</title>
<path fill="none" stroke="black" d="M390.9,-143.97C358.63,-134.06 317.77,-121.51 283.92,-111.12"/>
<polygon fill="black" stroke="black" points="284.7,-107.7 274.11,-108.11 282.65,-114.39 284.7,-107.7"/>
</g>
<!-- [root] data.aws_availability_zones.all (expand) -->
<g id="node6" class="node">
<title>[root] data.aws_availability_zones.all (expand)</title>
<polygon fill="none" stroke="black" points="563.88,-108 328.88,-108 328.88,-72 563.88,-72 563.88,-108"/>
<text text-anchor="middle" x="446.38" y="-86.3" font-family="Times,serif" font-size="14.00">data.aws_availability_zones.all</text>
</g>
<!-- [root] aws_elb.project (expand)&#45;&gt;[root] data.aws_availability_zones.all (expand) -->
<g id="edge4" class="edge">
<title>[root] aws_elb.project (expand)&#45;&gt;[root] data.aws_availability_zones.all (expand)</title>
<path fill="none" stroke="black" d="M446.38,-143.7C446.38,-135.98 446.38,-126.71 446.38,-118.11"/>
<polygon fill="black" stroke="black" points="449.88,-118.1 446.38,-108.1 442.88,-118.1 449.88,-118.1"/>
</g>
<!-- [root] var.server_port -->
<g id="node8" class="node">
<title>[root] var.server_port</title>
<polygon fill="none" stroke="black" points="787.88,-36 668.88,-36 668.88,0 793.88,0 793.88,-30 787.88,-36"/>
<polyline fill="none" stroke="black" points="787.88,-36 787.88,-30 "/>
<polyline fill="none" stroke="black" points="793.88,-30 787.88,-30 "/>
<text text-anchor="middle" x="731.38" y="-14.3" font-family="Times,serif" font-size="14.00">var.server_port</text>
</g>
<!-- [root] aws_elb.project (expand)&#45;&gt;[root] var.server_port -->
<g id="edge5" class="edge">
<title>[root] aws_elb.project (expand)&#45;&gt;[root] var.server_port</title>
<path fill="none" stroke="black" d="M498.87,-144C522.63,-135.1 550.45,-122.92 573.38,-108 592.88,-95.31 592.01,-84.89 611.38,-72 630.37,-59.37 652.86,-48.51 673.22,-39.97"/>
<polygon fill="black" stroke="black" points="674.77,-43.11 682.7,-36.08 672.12,-36.63 674.77,-43.11"/>
</g>
<!-- [root] aws_security_group.instance (expand) -->
<g id="node5" class="node">
<title>[root] aws_security_group.instance (expand)</title>
<polygon fill="none" stroke="black" points="842.38,-108 620.38,-108 620.38,-72 842.38,-72 842.38,-108"/>
<text text-anchor="middle" x="731.38" y="-86.3" font-family="Times,serif" font-size="14.00">aws_security_group.instance</text>
</g>
<!-- [root] aws_launch_configuration.project (expand)&#45;&gt;[root] aws_security_group.instance (expand) -->
<g id="edge6" class="edge">
<title>[root] aws_launch_configuration.project (expand)&#45;&gt;[root] aws_security_group.instance (expand)</title>
<path fill="none" stroke="black" d="M731.38,-143.7C731.38,-135.98 731.38,-126.71 731.38,-118.11"/>
<polygon fill="black" stroke="black" points="734.88,-118.1 731.38,-108.1 727.88,-118.1 734.88,-118.1"/>
</g>
<!-- [root] provider[&quot;registry.terraform.io/hashicorp/aws&quot;] -->
<g id="node7" class="node">
<title>[root] provider[&quot;registry.terraform.io/hashicorp/aws&quot;]</title>
<polygon fill="none" stroke="black" points="325.38,-36 0.12,-18 325.38,0 650.65,-18 325.38,-36"/>
<text text-anchor="middle" x="325.38" y="-14.3" font-family="Times,serif" font-size="14.00">provider[&quot;registry.terraform.io/hashicorp/aws&quot;]</text>
</g>
<!-- [root] aws_security_group.elb (expand)&#45;&gt;[root] provider[&quot;registry.terraform.io/hashicorp/aws&quot;] -->
<g id="edge7" class="edge">
<title>[root] aws_security_group.elb (expand)&#45;&gt;[root] provider[&quot;registry.terraform.io/hashicorp/aws&quot;]</title>
<path fill="none" stroke="black" d="M244.56,-71.88C259.04,-62.4 277.17,-50.54 292.59,-40.45"/>
<polygon fill="black" stroke="black" points="294.85,-43.15 301.31,-34.75 291.02,-37.3 294.85,-43.15"/>
</g>
<!-- [root] aws_security_group.instance (expand)&#45;&gt;[root] provider[&quot;registry.terraform.io/hashicorp/aws&quot;] -->
<g id="edge8" class="edge">
<title>[root] aws_security_group.instance (expand)&#45;&gt;[root] provider[&quot;registry.terraform.io/hashicorp/aws&quot;]</title>
<path fill="none" stroke="black" d="M632.58,-71.97C564.63,-60.25 475.3,-44.85 410.5,-33.68"/>
<polygon fill="black" stroke="black" points="410.76,-30.17 400.31,-31.92 409.57,-37.07 410.76,-30.17"/>
</g>
<!-- [root] aws_security_group.instance (expand)&#45;&gt;[root] var.server_port -->
<g id="edge9" class="edge">
<title>[root] aws_security_group.instance (expand)&#45;&gt;[root] var.server_port</title>
<path fill="none" stroke="black" d="M731.38,-71.7C731.38,-63.98 731.38,-54.71 731.38,-46.11"/>
<polygon fill="black" stroke="black" points="734.88,-46.1 731.38,-36.1 727.88,-46.1 734.88,-46.1"/>
</g>
<!-- [root] data.aws_availability_zones.all (expand)&#45;&gt;[root] provider[&quot;registry.terraform.io/hashicorp/aws&quot;] -->
<g id="edge10" class="edge">
<title>[root] data.aws_availability_zones.all (expand)&#45;&gt;[root] provider[&quot;registry.terraform.io/hashicorp/aws&quot;]</title>
<path fill="none" stroke="black" d="M416.78,-71.88C400.1,-62.23 379.13,-50.1 361.49,-39.89"/>
<polygon fill="black" stroke="black" points="363.02,-36.73 352.61,-34.75 359.51,-42.79 363.02,-36.73"/>
</g>
<!-- [root] output.elb_dns_name (expand) -->
<g id="node9" class="node">
<title>[root] output.elb_dns_name (expand)</title>
<ellipse fill="none" stroke="black" cx="413.38" cy="-234" rx="181.17" ry="18"/>
<text text-anchor="middle" x="413.38" y="-230.3" font-family="Times,serif" font-size="14.00">[root] output.elb_dns_name (expand)</text>
</g>
<!-- [root] output.elb_dns_name (expand)&#45;&gt;[root] aws_elb.project (expand) -->
<g id="edge11" class="edge">
<title>[root] output.elb_dns_name (expand)&#45;&gt;[root] aws_elb.project (expand)</title>
<path fill="none" stroke="black" d="M421.54,-215.7C425.3,-207.73 429.83,-198.1 434,-189.26"/>
<polygon fill="black" stroke="black" points="437.22,-190.64 438.32,-180.1 430.89,-187.66 437.22,-190.64"/>
</g>
<!-- [root] provider[&quot;registry.terraform.io/hashicorp/aws&quot;] (close) -->
<g id="node10" class="node">
<title>[root] provider[&quot;registry.terraform.io/hashicorp/aws&quot;] (close)</title>
<ellipse fill="none" stroke="black" cx="732.38" cy="-306" rx="291.65" ry="18"/>
<text text-anchor="middle" x="732.38" y="-302.3" font-family="Times,serif" font-size="14.00">[root] provider[&quot;registry.terraform.io/hashicorp/aws&quot;] (close)</text>
</g>
<!-- [root] provider[&quot;registry.terraform.io/hashicorp/aws&quot;] (close)&#45;&gt;[root] aws_autoscaling_group.project (expand) -->
<g id="edge12" class="edge">
<title>[root] provider[&quot;registry.terraform.io/hashicorp/aws&quot;] (close)&#45;&gt;[root] aws_autoscaling_group.project (expand)</title>
<path fill="none" stroke="black" d="M732.13,-287.7C732.02,-279.98 731.89,-270.71 731.77,-262.11"/>
<polygon fill="black" stroke="black" points="735.27,-262.05 731.63,-252.1 728.27,-262.15 735.27,-262.05"/>
</g>
<!-- [root] root -->
<g id="node11" class="node">
<title>[root] root</title>
<ellipse fill="none" stroke="black" cx="572.38" cy="-378" rx="58.49" ry="18"/>
<text text-anchor="middle" x="572.38" y="-374.3" font-family="Times,serif" font-size="14.00">[root] root</text>
</g>
<!-- [root] root&#45;&gt;[root] output.elb_dns_name (expand) -->
<g id="edge13" class="edge">
<title>[root] root&#45;&gt;[root] output.elb_dns_name (expand)</title>
<path fill="none" stroke="black" d="M519.9,-370.01C489.72,-363.25 453.51,-349.98 431.38,-324 416.89,-306.99 412.93,-281.53 412.28,-262.19"/>
<polygon fill="black" stroke="black" points="415.78,-262.15 412.21,-252.17 408.78,-262.2 415.78,-262.15"/>
</g>
<!-- [root] root&#45;&gt;[root] provider[&quot;registry.terraform.io/hashicorp/aws&quot;] (close) -->
<g id="edge14" class="edge">
<title>[root] root&#45;&gt;[root] provider[&quot;registry.terraform.io/hashicorp/aws&quot;] (close)</title>
<path fill="none" stroke="black" d="M604.76,-362.83C627.69,-352.8 658.84,-339.18 684.62,-327.9"/>
<polygon fill="black" stroke="black" points="686.09,-331.07 693.85,-323.86 683.28,-324.66 686.09,-331.07"/>
</g>
</g>
</svg>
